<svg width="348" height="48" viewBox="0 0 348 48" fill="none" xmlns="http://www.w3.org/2000/svg">
<rect x="41" y="48" width="8" height="48" rx="2.5" transform="rotate(-180 41 48)" fill="url(#paint0_linear_1481_748)"/>
<rect x="28" y="21" width="8" height="15" rx="2.5" transform="rotate(-180 28 21)" fill="url(#paint1_linear_1481_748)"/>
<rect x="15" y="34" width="8" height="20" rx="2.5" transform="rotate(-180 15 34)" fill="url(#paint2_linear_1481_748)"/>
<rect x="28" y="42" width="8" height="15" rx="2.5" transform="rotate(-180 28 42)" fill="url(#paint3_linear_1481_748)"/>
<path d="M66.5568 35.5V12.2273H70.0682V22.3409H81.6705V12.2273H85.1932V35.5H81.6705V25.3523H70.0682V35.5H66.5568ZM92.1818 42.0455C91.6742 42.0455 91.2121 42.0038 90.7955 41.9205C90.3788 41.8447 90.0682 41.7614 89.8636 41.6705L90.6818 38.8864C91.303 39.053 91.8561 39.125 92.3409 39.1023C92.8258 39.0795 93.2538 38.8977 93.625 38.5568C94.0038 38.2159 94.3371 37.6591 94.625 36.8864L95.0455 35.7273L88.6591 18.0455H92.2955L96.7159 31.5909H96.8977L101.318 18.0455H104.966L97.7727 37.8295C97.4394 38.7386 97.0152 39.5076 96.5 40.1364C95.9848 40.7727 95.3712 41.25 94.6591 41.5682C93.947 41.8864 93.1212 42.0455 92.1818 42.0455ZM108.159 42.0455V18.0455H111.477V20.875H111.761C111.958 20.5114 112.242 20.0909 112.614 19.6136C112.985 19.1364 113.5 18.7197 114.159 18.3636C114.818 18 115.689 17.8182 116.773 17.8182C118.182 17.8182 119.439 18.1742 120.545 18.8864C121.652 19.5985 122.519 20.625 123.148 21.9659C123.784 23.3068 124.102 24.9205 124.102 26.8068C124.102 28.6932 123.788 30.3106 123.159 31.6591C122.53 33 121.667 34.0341 120.568 34.7614C119.47 35.4811 118.216 35.8409 116.807 35.8409C115.746 35.8409 114.879 35.6629 114.205 35.3068C113.538 34.9508 113.015 34.5341 112.636 34.0568C112.258 33.5795 111.966 33.1553 111.761 32.7841H111.557V42.0455H108.159ZM111.489 26.7727C111.489 28 111.667 29.0758 112.023 30C112.379 30.9242 112.894 31.6477 113.568 32.1705C114.242 32.6856 115.068 32.9432 116.045 32.9432C117.061 32.9432 117.909 32.6742 118.591 32.1364C119.273 31.5909 119.788 30.8523 120.136 29.9205C120.492 28.9886 120.67 27.9394 120.67 26.7727C120.67 25.6212 120.496 24.5871 120.148 23.6705C119.807 22.7538 119.292 22.0303 118.602 21.5C117.92 20.9697 117.068 20.7045 116.045 20.7045C115.061 20.7045 114.227 20.9583 113.545 21.4659C112.871 21.9735 112.36 22.6818 112.011 23.5909C111.663 24.5 111.489 25.5606 111.489 26.7727ZM135.432 35.8523C133.712 35.8523 132.231 35.4848 130.989 34.75C129.754 34.0076 128.799 32.9659 128.125 31.625C127.458 30.2765 127.125 28.697 127.125 26.8864C127.125 25.0985 127.458 23.5227 128.125 22.1591C128.799 20.7955 129.739 19.7311 130.943 18.9659C132.155 18.2008 133.572 17.8182 135.193 17.8182C136.178 17.8182 137.133 17.9811 138.057 18.3068C138.981 18.6326 139.811 19.1439 140.545 19.8409C141.28 20.5379 141.86 21.4432 142.284 22.5568C142.708 23.6629 142.92 25.0076 142.92 26.5909V27.7955H129.045V25.25H139.591C139.591 24.3561 139.409 23.5644 139.045 22.875C138.682 22.178 138.17 21.6288 137.511 21.2273C136.86 20.8258 136.095 20.625 135.216 20.625C134.261 20.625 133.428 20.8598 132.716 21.3295C132.011 21.7917 131.466 22.3977 131.08 23.1477C130.701 23.8902 130.511 24.697 130.511 25.5682V27.5568C130.511 28.7235 130.716 29.7159 131.125 30.5341C131.542 31.3523 132.121 31.9773 132.864 32.4091C133.606 32.8333 134.473 33.0455 135.466 33.0455C136.11 33.0455 136.697 32.9545 137.227 32.7727C137.758 32.5833 138.216 32.303 138.602 31.9318C138.989 31.5606 139.284 31.1023 139.489 30.5568L142.705 31.1364C142.447 32.0833 141.985 32.9129 141.318 33.625C140.659 34.3295 139.83 34.8788 138.83 35.2727C137.837 35.6591 136.705 35.8523 135.432 35.8523ZM146.69 35.5V18.0455H149.974V20.8182H150.156C150.474 19.8788 151.035 19.1402 151.838 18.6023C152.649 18.0568 153.565 17.7841 154.588 17.7841C154.8 17.7841 155.05 17.7917 155.338 17.8068C155.634 17.822 155.865 17.8409 156.031 17.8636V21.1136C155.895 21.0758 155.652 21.0341 155.304 20.9886C154.955 20.9356 154.607 20.9091 154.259 20.9091C153.455 20.9091 152.74 21.0795 152.111 21.4205C151.49 21.7538 150.997 22.2197 150.634 22.8182C150.27 23.4091 150.088 24.0833 150.088 24.8409V35.5H146.69ZM172.051 22.3068L168.972 22.8523C168.843 22.4583 168.638 22.0833 168.358 21.7273C168.085 21.3712 167.714 21.0795 167.244 20.8523C166.775 20.625 166.188 20.5114 165.483 20.5114C164.521 20.5114 163.718 20.7273 163.074 21.1591C162.43 21.5833 162.108 22.1326 162.108 22.8068C162.108 23.3902 162.324 23.8598 162.756 24.2159C163.188 24.572 163.884 24.8636 164.847 25.0909L167.619 25.7273C169.225 26.0985 170.422 26.6705 171.21 27.4432C171.998 28.2159 172.392 29.2197 172.392 30.4545C172.392 31.5 172.089 32.4318 171.483 33.25C170.884 34.0606 170.047 34.697 168.972 35.1591C167.903 35.6212 166.665 35.8523 165.256 35.8523C163.301 35.8523 161.706 35.4356 160.472 34.6023C159.237 33.7614 158.479 32.5682 158.199 31.0227L161.483 30.5227C161.688 31.3788 162.108 32.0265 162.744 32.4659C163.381 32.8977 164.21 33.1136 165.233 33.1136C166.347 33.1136 167.237 32.8826 167.903 32.4205C168.57 31.9508 168.903 31.3788 168.903 30.7045C168.903 30.1591 168.699 29.7008 168.29 29.3295C167.888 28.9583 167.271 28.678 166.438 28.4886L163.483 27.8409C161.854 27.4697 160.65 26.8788 159.869 26.0682C159.097 25.2576 158.71 24.2311 158.71 22.9886C158.71 21.9583 158.998 21.0568 159.574 20.2841C160.15 19.5114 160.945 18.9091 161.96 18.4773C162.975 18.0379 164.138 17.8182 165.449 17.8182C167.335 17.8182 168.82 18.2273 169.903 19.0455C170.987 19.8561 171.703 20.9432 172.051 22.3068ZM179.253 29.5795L179.23 25.4318H179.821L186.776 18.0455H190.844L182.912 26.4545H182.378L179.253 29.5795ZM176.128 35.5V12.2273H179.526V35.5H176.128ZM187.151 35.5L180.901 27.2045L183.241 24.8295L191.321 35.5H187.151ZM193.94 35.5V18.0455H197.338V35.5H193.94ZM195.656 15.3523C195.065 15.3523 194.558 15.1553 194.134 14.7614C193.717 14.3598 193.509 13.8826 193.509 13.3295C193.509 12.7689 193.717 12.2917 194.134 11.8977C194.558 11.4962 195.065 11.2955 195.656 11.2955C196.247 11.2955 196.751 11.4962 197.168 11.8977C197.592 12.2917 197.804 12.7689 197.804 13.3295C197.804 13.8826 197.592 14.3598 197.168 14.7614C196.751 15.1553 196.247 15.3523 195.656 15.3523ZM205.307 12.2273V35.5H201.909V12.2273H205.307ZM213.276 12.2273V35.5H209.878V12.2273H213.276ZM225.44 15.25V12.2273H243.452V15.25H236.19V35.5H232.69V15.25H225.44ZM245.347 35.5V18.0455H248.631V20.8182H248.812C249.131 19.8788 249.691 19.1402 250.494 18.6023C251.305 18.0568 252.222 17.7841 253.244 17.7841C253.456 17.7841 253.706 17.7917 253.994 17.8068C254.29 17.822 254.521 17.8409 254.688 17.8636V21.1136C254.551 21.0758 254.309 21.0341 253.96 20.9886C253.612 20.9356 253.263 20.9091 252.915 20.9091C252.112 20.9091 251.396 21.0795 250.767 21.4205C250.146 21.7538 249.653 22.2197 249.29 22.8182C248.926 23.4091 248.744 24.0833 248.744 24.8409V35.5H245.347ZM262.551 35.8864C261.445 35.8864 260.445 35.6818 259.551 35.2727C258.657 34.8561 257.949 34.2538 257.426 33.4659C256.911 32.678 256.653 31.7121 256.653 30.5682C256.653 29.5833 256.843 28.7727 257.222 28.1364C257.6 27.5 258.112 26.9962 258.756 26.625C259.4 26.2538 260.119 25.9735 260.915 25.7841C261.71 25.5947 262.521 25.4508 263.347 25.3523C264.392 25.2311 265.241 25.1326 265.892 25.0568C266.544 24.9735 267.017 24.8409 267.312 24.6591C267.608 24.4773 267.756 24.1818 267.756 23.7727V23.6932C267.756 22.7008 267.475 21.9318 266.915 21.3864C266.362 20.8409 265.536 20.5682 264.438 20.5682C263.294 20.5682 262.392 20.822 261.733 21.3295C261.081 21.8295 260.631 22.3864 260.381 23L257.188 22.2727C257.566 21.2121 258.119 20.3561 258.847 19.7045C259.581 19.0455 260.426 18.5682 261.381 18.2727C262.335 17.9697 263.339 17.8182 264.392 17.8182C265.089 17.8182 265.828 17.9015 266.608 18.0682C267.396 18.2273 268.131 18.5227 268.812 18.9545C269.502 19.3864 270.066 20.0038 270.506 20.8068C270.945 21.6023 271.165 22.6364 271.165 23.9091V35.5H267.847V33.1136H267.71C267.491 33.553 267.161 33.9848 266.722 34.4091C266.282 34.8333 265.718 35.1856 265.028 35.4659C264.339 35.7462 263.513 35.8864 262.551 35.8864ZM263.29 33.1591C264.229 33.1591 265.032 32.9735 265.699 32.6023C266.373 32.2311 266.884 31.7462 267.233 31.1477C267.589 30.5417 267.767 29.8939 267.767 29.2045V26.9545C267.646 27.0758 267.411 27.1894 267.062 27.2955C266.722 27.3939 266.331 27.4811 265.892 27.5568C265.453 27.625 265.025 27.6894 264.608 27.75C264.191 27.803 263.843 27.8485 263.562 27.8864C262.903 27.9697 262.301 28.1098 261.756 28.3068C261.218 28.5038 260.786 28.7879 260.46 29.1591C260.142 29.5227 259.983 30.0076 259.983 30.6136C259.983 31.4545 260.294 32.0909 260.915 32.5227C261.536 32.947 262.328 33.1591 263.29 33.1591ZM275.69 35.5V18.0455H279.088V35.5H275.69ZM277.406 15.3523C276.815 15.3523 276.308 15.1553 275.884 14.7614C275.467 14.3598 275.259 13.8826 275.259 13.3295C275.259 12.7689 275.467 12.2917 275.884 11.8977C276.308 11.4962 276.815 11.2955 277.406 11.2955C277.997 11.2955 278.501 11.4962 278.918 11.8977C279.342 12.2917 279.554 12.7689 279.554 13.3295C279.554 13.8826 279.342 14.3598 278.918 14.7614C278.501 15.1553 277.997 15.3523 277.406 15.3523ZM287.057 25.1364V35.5H283.659V18.0455H286.92V20.8864H287.136C287.538 19.9621 288.167 19.2197 289.023 18.6591C289.886 18.0985 290.973 17.8182 292.284 17.8182C293.473 17.8182 294.515 18.0682 295.409 18.5682C296.303 19.0606 296.996 19.7955 297.489 20.7727C297.981 21.75 298.227 22.9583 298.227 24.3977V35.5H294.83V24.8068C294.83 23.5417 294.5 22.553 293.841 21.8409C293.182 21.1212 292.277 20.7614 291.125 20.7614C290.337 20.7614 289.636 20.9318 289.023 21.2727C288.417 21.6136 287.936 22.1136 287.58 22.7727C287.231 23.4242 287.057 24.2121 287.057 25.1364ZM302.784 35.5V18.0455H306.182V35.5H302.784ZM304.5 15.3523C303.909 15.3523 303.402 15.1553 302.977 14.7614C302.561 14.3598 302.352 13.8826 302.352 13.3295C302.352 12.7689 302.561 12.2917 302.977 11.8977C303.402 11.4962 303.909 11.2955 304.5 11.2955C305.091 11.2955 305.595 11.4962 306.011 11.8977C306.436 12.2917 306.648 12.7689 306.648 13.3295C306.648 13.8826 306.436 14.3598 306.011 14.7614C305.595 15.1553 305.091 15.3523 304.5 15.3523ZM314.151 25.1364V35.5H310.753V18.0455H314.014V20.8864H314.23C314.632 19.9621 315.26 19.2197 316.116 18.6591C316.98 18.0985 318.067 17.8182 319.378 17.8182C320.567 17.8182 321.609 18.0682 322.503 18.5682C323.397 19.0606 324.09 19.7955 324.582 20.7727C325.075 21.75 325.321 22.9583 325.321 24.3977V35.5H321.923V24.8068C321.923 23.5417 321.594 22.553 320.935 21.8409C320.276 21.1212 319.37 20.7614 318.219 20.7614C317.431 20.7614 316.73 20.9318 316.116 21.2727C315.51 21.6136 315.029 22.1136 314.673 22.7727C314.325 23.4242 314.151 24.2121 314.151 25.1364ZM337.196 42.4091C335.81 42.4091 334.616 42.2273 333.616 41.8636C332.624 41.5 331.813 41.0189 331.185 40.4205C330.556 39.822 330.086 39.1667 329.776 38.4545L332.696 37.25C332.901 37.5833 333.173 37.9356 333.514 38.3068C333.863 38.6856 334.332 39.0076 334.923 39.2727C335.522 39.5379 336.291 39.6705 337.23 39.6705C338.518 39.6705 339.582 39.3561 340.423 38.7273C341.264 38.1061 341.685 37.1136 341.685 35.75V32.3182H341.469C341.264 32.6894 340.969 33.1023 340.582 33.5568C340.204 34.0114 339.681 34.4053 339.014 34.7386C338.348 35.072 337.48 35.2386 336.412 35.2386C335.033 35.2386 333.791 34.9167 332.685 34.2727C331.586 33.6212 330.715 32.6629 330.071 31.3977C329.435 30.125 329.116 28.5606 329.116 26.7045C329.116 24.8485 329.431 23.2576 330.06 21.9318C330.696 20.6061 331.567 19.5909 332.673 18.8864C333.779 18.1742 335.033 17.8182 336.435 17.8182C337.518 17.8182 338.393 18 339.06 18.3636C339.726 18.7197 340.245 19.1364 340.616 19.6136C340.995 20.0909 341.287 20.5114 341.491 20.875H341.741V18.0455H345.071V35.8864C345.071 37.3864 344.723 38.6174 344.026 39.5795C343.329 40.5417 342.385 41.2538 341.196 41.7159C340.014 42.178 338.681 42.4091 337.196 42.4091ZM337.162 32.4205C338.139 32.4205 338.965 32.1932 339.639 31.7386C340.321 31.2765 340.836 30.6174 341.185 29.7614C341.541 28.8977 341.719 27.8636 341.719 26.6591C341.719 25.4848 341.545 24.4508 341.196 23.5568C340.848 22.6629 340.336 21.9659 339.662 21.4659C338.988 20.9583 338.154 20.7045 337.162 20.7045C336.139 20.7045 335.287 20.9697 334.605 21.5C333.923 22.0227 333.408 22.7348 333.06 23.6364C332.719 24.5379 332.548 25.5455 332.548 26.6591C332.548 27.803 332.723 28.8068 333.071 29.6705C333.42 30.5341 333.935 31.2083 334.616 31.6932C335.306 32.178 336.154 32.4205 337.162 32.4205Z" fill="white" fill-opacity="0.75"/>
<defs>
<linearGradient id="paint0_linear_1481_748" x1="43.5629" y1="84.8706" x2="29.324" y2="71.8054" gradientUnits="userSpaceOnUse">
<stop stop-color="#564DE2"/>
<stop offset="1" stop-color="#68AEFF"/>
</linearGradient>
<linearGradient id="paint1_linear_1481_748" x1="36" y1="43.6131" x2="23.014" y2="32.2662" gradientUnits="userSpaceOnUse">
<stop stop-color="#6C63FF"/>
<stop offset="1" stop-color="#7AB7FE"/>
</linearGradient>
<linearGradient id="paint2_linear_1481_748" x1="17.2036" y1="30.3659" x2="30.5244" y2="43.5107" gradientUnits="userSpaceOnUse">
<stop stop-color="#4BFFDF"/>
<stop offset="1" stop-color="#7AB7FE"/>
</linearGradient>
<linearGradient id="paint3_linear_1481_748" x1="29.3892" y1="33.334" x2="43.5371" y2="47.6154" gradientUnits="userSpaceOnUse">
<stop stop-color="#4BFFDF"/>
<stop offset="1" stop-color="#4D9FFF"/>
</linearGradient>
</defs>
</svg>
